<?xml version="1.0" encoding="utf-8"?>
<!-- Generator: Adobe Illustrator 18.0.0, SVG Export Plug-In . SVG Version: 6.00 Build 0)  -->
<!DOCTYPE svg PUBLIC "-//W3C//DTD SVG 1.1//EN" "http://www.w3.org/Graphics/SVG/1.1/DTD/svg11.dtd">
<svg version="1.1" id="Layer_1" xmlns="http://www.w3.org/2000/svg" xmlns:xlink="http://www.w3.org/1999/xlink" x="0px" y="0px"
	 viewBox="0 0 28.5 24" enable-background="new 0 0 28.5 24" xml:space="preserve">
<path fill="#FF00FF" d="M17.2,4.1c1.3,0.8,2.2,2.2,2.4,3.8c0.5,0.3,1.1,0.4,1.8,0.4c2.3,0,4.2-1.9,4.2-4.2c0-2.3-1.9-4.2-4.2-4.2
	C19.1,0,17.2,1.8,17.2,4.1z M14.5,12.7c2.3,0,4.2-1.9,4.2-4.2s-1.9-4.2-4.2-4.2s-4.2,1.9-4.2,4.2S12.1,12.7,14.5,12.7z M16.2,13
	h-3.5c-3,0-5.4,2.4-5.4,5.4v4.3l0,0.1l0.3,0.1c2.8,0.9,5.3,1.2,7.3,1.2c3.9,0,6.2-1.1,6.4-1.2l0.3-0.1h0v-4.3
	C21.6,15.4,19.2,13,16.2,13z M23.1,8.6h-3.5c0,1.4-0.6,2.7-1.6,3.6c2.6,0.8,4.5,3.2,4.5,6.1v1.3c3.5-0.1,5.5-1.1,5.6-1.2l0.3-0.1h0
	V14C28.5,11,26.1,8.6,23.1,8.6z M7.1,8.4c0.8,0,1.6-0.2,2.2-0.6c0.2-1.3,0.9-2.5,1.9-3.3c0-0.1,0-0.2,0-0.2C11.3,1.9,9.4,0,7.1,0
	C4.8,0,2.9,1.9,2.9,4.2C2.9,6.5,4.8,8.4,7.1,8.4z M10.9,12.2c-0.9-0.9-1.5-2.2-1.6-3.6c-0.1,0-0.3,0-0.4,0H5.4C2.4,8.6,0,11,0,14
	v4.3l0,0.1l0.3,0.1c2.3,0.7,4.3,1,6,1.1v-1.3C6.3,15.4,8.3,13,10.9,12.2z"/>
</svg>
