<?xml version="1.0" encoding="utf-8"?>
<!-- Generator: Adobe Illustrator 18.0.0, SVG Export Plug-In . SVG Version: 6.00 Build 0)  -->
<!DOCTYPE svg PUBLIC "-//W3C//DTD SVG 1.1//EN" "http://www.w3.org/Graphics/SVG/1.1/DTD/svg11.dtd">
<svg version="1.1" id="Layer_1" xmlns="http://www.w3.org/2000/svg" xmlns:xlink="http://www.w3.org/1999/xlink" x="0px" y="0px"
	 viewBox="0 0 210.5 41" enable-background="new 0 0 210.5 41" xml:space="preserve">
<g>
	<g>
		<path fill="#FFFFFF" d="M227.1,750c0.5-0.5,1.3-1.1,1.7-1.8c-1.2,1.1-2.8,1.9-3.8,2.5V715h-8v39h2.4
			C222.4,753,224.9,752.2,227.1,750z"/>
		<path fill="#FFFFFF" d="M384,724c-0.5-2.6-1.6-4.9-3.3-6.7c-2.8-2.8-6.1-4.3-10.1-4.3c0,0-0.3,0-0.3,0l0,0H246.9
			c-4.1,0-7.5,1.5-10.3,4.3c-0.5,0.5-0.9,0.8-1.3,1.4c2.6-2.3,5.8-3.6,9.5-3.6h123.5l0,0c0,0,0,0,0,0c4,0,7.5,1.7,10.2,4.4
			c1.7,1.7,2.9,4.1,3.3,6.7c0.3,1.6,0.5,4.5,0.5,8.6c0,4.1-0.2,7-0.5,8.6c-0.3,1.9-1,3.6-2,5c0.3-0.2,0.5-0.4,0.8-0.7
			c1.7-1.7,2.8-3.9,3.3-6.5c0.3-1.6,0.5-4.5,0.5-8.6C384.5,728.4,384.4,725.6,384,724z"/>
		<polygon fill="#FFFFFF" points="190.6,735.8 180.5,715 174,715 174,754 182,754 182,731.5 188.1,746 193.2,746 201,731.5 201,754 
			209,754 209,715 200.5,715 		"/>
	</g>
	<g>
		<path fill="#FFFFFF" d="M257.2,737.5c0,2.9-0.5,4.9-1.6,5.9c-0.8,0.8-2,1.2-3.4,1.2c-1.6,0-2.8-0.5-3.7-1.6v7.1h-2.8v-19.7h2.8
			v1.5c0.9-1.1,2.2-1.7,3.7-1.7c1.5,0,2.6,0.4,3.4,1.2C256.7,732.6,257.2,734.6,257.2,737.5z M254.4,737.5c0-1.5-0.2-2.6-0.5-3.3
			c-0.4-0.9-1.3-1.4-2.4-1.4c-1.2,0-2,0.5-2.4,1.4c-0.4,0.7-0.5,1.8-0.5,3.3c0,1.5,0.2,2.6,0.5,3.3c0.4,0.9,1.3,1.4,2.4,1.4
			c1.2,0,2-0.5,2.4-1.4C254.3,740.1,254.4,739,254.4,737.5z"/>
		<path fill="#FFFFFF" d="M270.9,731.7l-2.1,2.1c-0.6-0.6-1.3-0.9-2.1-0.9c-0.8,0-1.5,0.3-2,0.9s-0.8,1.3-0.8,2.3v8.5h-2.8v-14h2.8
			v1.5c0.8-1.1,2.1-1.7,3.7-1.7C268.9,730.3,270,730.8,270.9,731.7z"/>
		<path fill="#FFFFFF" d="M284.2,737.5c0,2.5-0.5,4.4-1.6,5.5c-1.1,1.1-2.5,1.7-4.2,1.7c-1.7,0-3.1-0.6-4.2-1.7
			c-1.1-1.1-1.6-3-1.6-5.5c0-2.5,0.5-4.3,1.6-5.5c1.1-1.1,2.5-1.7,4.2-1.7c1.7,0,3.1,0.6,4.2,1.7C283.7,733.2,284.2,735,284.2,737.5
			z M281.4,737.5c0-1.9-0.3-3.2-1-3.8c-0.5-0.5-1.2-0.8-2.1-0.8c-0.8,0-1.5,0.3-2,0.8c-0.6,0.6-1,1.9-1,3.8c0,1.9,0.3,3.2,1,3.8
			c0.6,0.6,1.2,0.8,2,0.8c0.8,0,1.5-0.3,2.1-0.8C281.1,740.7,281.4,739.4,281.4,737.5z"/>
		<path fill="#FFFFFF" d="M299.5,737.5c0,2.9-0.5,4.9-1.6,5.9c-0.8,0.8-2,1.2-3.4,1.2c-1.6,0-2.8-0.5-3.7-1.6v7.1H288v-19.7h2.8v1.5
			c0.9-1.1,2.2-1.7,3.7-1.7c1.5,0,2.6,0.4,3.4,1.2C299,732.6,299.5,734.6,299.5,737.5z M296.7,737.5c0-1.5-0.2-2.6-0.5-3.3
			c-0.4-0.9-1.3-1.4-2.4-1.4c-1.2,0-2,0.5-2.4,1.4c-0.4,0.7-0.5,1.8-0.5,3.3c0,1.5,0.2,2.6,0.5,3.3c0.4,0.9,1.3,1.4,2.4,1.4
			c1.2,0,2-0.5,2.4-1.4C296.5,740.1,296.7,739,296.7,737.5z"/>
		<path fill="#FFFFFF" d="M314.6,744.5h-2.8v-1.4c-1,1.1-2.2,1.6-3.7,1.6c-1.4,0-2.6-0.4-3.4-1.3c-0.9-0.9-1.4-2.2-1.4-4v-9h2.8v8.5
			c0,1,0.3,1.8,0.8,2.4c0.5,0.5,1.2,0.7,2,0.7c0.8,0,1.5-0.3,2.1-0.8c0.5-0.5,0.8-1.3,0.8-2.3v-8.5h2.8V744.5z"/>
		<path fill="#FFFFFF" d="M330.2,738.3h-9.1c0,1.2,0.3,2.2,0.9,2.9c0.6,0.7,1.5,1.1,2.6,1.1c1.3,0,2.4-0.5,3.4-1.4l1.8,1.7
			c-0.8,0.8-1.5,1.3-2.2,1.6c-0.8,0.4-1.8,0.6-3,0.6c-4.2,0-6.3-2.4-6.3-7.2c0-2.2,0.5-4,1.6-5.3c1.1-1.3,2.5-1.9,4.3-1.9
			c1.8,0,3.3,0.6,4.4,1.9c1,1.2,1.5,2.8,1.5,4.9V738.3z M327.4,736.4c0-0.7-0.1-1.4-0.4-1.9c-0.5-1.2-1.4-1.8-2.8-1.8
			c-1.4,0-2.3,0.6-2.8,1.8c-0.2,0.5-0.3,1.1-0.4,1.9H327.4z"/>
		<path fill="#FFFFFF" d="M344.3,740.2c0,1.4-0.5,2.5-1.6,3.3c-1.1,0.8-2.5,1.2-4.2,1.2c-2.6,0-4.5-0.7-5.9-2l1.9-1.9
			c1,1,2.3,1.5,4,1.5c2,0,3.1-0.6,3.1-1.9c0-1-0.6-1.5-1.9-1.7l-2.2-0.2c-2.8-0.2-4.1-1.5-4.1-3.9c0-1.3,0.5-2.4,1.5-3.2
			c1-0.7,2.2-1.1,3.7-1.1c2.3,0,4,0.5,5.2,1.6l-1.8,1.8c-0.8-0.7-2-1-3.5-1c-1.7,0-2.5,0.6-2.5,1.8c0,1,0.6,1.5,1.9,1.6l2.2,0.2
			C342.9,736.5,344.3,737.8,344.3,740.2z"/>
		<path fill="#FFFFFF" d="M353.6,744.5h-1.7c-1.2,0-2.2-0.4-2.9-1.2c-0.6-0.7-0.9-1.6-0.9-2.7v-7.7h-1.6v-2.2h1.6v-4.3h2.8v4.3h2.7
			v2.2h-2.7v7.6c0,1.1,0.5,1.6,1.5,1.6h1.2V744.5z"/>
		<path fill="#FFFFFF" d="M367.5,744.5h-2.8v-1.3c-1,1-2.2,1.4-3.7,1.4c-1.7,0-2.9-0.4-3.7-1.3c-0.7-0.8-1.1-1.8-1.1-3
			c0-1.2,0.4-2.2,1.2-2.9c0.8-0.7,2-1.1,3.6-1.1h3.7v-1c0-1.8-1-2.6-3.1-2.6c-1.3,0-2.4,0.5-3.1,1.4l-1.9-1.7
			c0.6-0.8,1.4-1.3,2.2-1.6c0.7-0.3,1.7-0.4,2.9-0.4c3.9,0,5.8,1.6,5.8,4.8V744.5z M364.7,739.5v-1.1h-3.3c-1.7,0-2.5,0.7-2.5,2
			c0,1.3,0.9,2,2.6,2c1.2,0,2.1-0.3,2.6-0.8C364.5,741.1,364.7,740.5,364.7,739.5z"/>
	</g>
</g>
<g>
	<g>
		<path fill="#FFFFFF" d="M53.1,37c0.5-0.5,1.3-1.1,1.7-1.8c-1.2,1.1-2.8,1.9-3.8,2.5V2h-8v39h2.4C48.4,40,50.9,39.2,53.1,37z"/>
		<path fill="#FFFFFF" d="M210,11c-0.5-2.6-1.6-4.9-3.3-6.7C204,1.5,200.6,0,196.6,0c0,0-0.3,0-0.3,0l0,0H72.9
			c-4.1,0-7.5,1.5-10.3,4.3c-0.5,0.5-0.9,0.8-1.3,1.4C64,3.4,67.2,2,70.9,2h123.5l0,0c0,0,0,0,0,0c4,0,7.5,1.7,10.2,4.4
			c1.7,1.7,2.9,4.1,3.3,6.7c0.3,1.6,0.5,4.5,0.5,8.6c0,4.1-0.2,7-0.5,8.6c-0.3,1.9-1,3.6-2,5c0.3-0.2,0.5-0.4,0.8-0.7
			c1.7-1.7,2.8-3.9,3.3-6.5c0.3-1.6,0.5-4.5,0.5-8.6C210.5,15.4,210.4,12.6,210,11z"/>
		<polygon fill="#FFFFFF" points="16.6,22.8 6.5,2 0,2 0,41 8,41 8,18.5 14.1,33 19.2,33 27,18.5 27,41 35,41 35,2 26.5,2 		"/>
	</g>
	<g>
		<path fill="#FFFFFF" d="M83.2,24.5c0,2.9-0.5,4.9-1.6,5.9c-0.8,0.8-2,1.2-3.4,1.2c-1.6,0-2.8-0.5-3.7-1.6v7.1h-2.8V17.5h2.8V19
			c0.9-1.1,2.2-1.7,3.7-1.7c1.5,0,2.6,0.4,3.4,1.2C82.7,19.6,83.2,21.6,83.2,24.5z M80.4,24.5c0-1.5-0.2-2.6-0.5-3.3
			c-0.4-0.9-1.3-1.4-2.4-1.4c-1.2,0-2,0.5-2.4,1.4c-0.4,0.7-0.5,1.8-0.5,3.3c0,1.5,0.2,2.6,0.5,3.3c0.4,0.9,1.3,1.4,2.4,1.4
			c1.2,0,2-0.5,2.4-1.4C80.3,27.1,80.4,26,80.4,24.5z"/>
		<path fill="#FFFFFF" d="M96.9,18.7l-2.1,2.1c-0.6-0.6-1.3-0.9-2.1-0.9c-0.8,0-1.5,0.3-2,0.9c-0.5,0.6-0.8,1.3-0.8,2.3v8.5h-2.8
			v-14h2.8V19c0.8-1.1,2.1-1.7,3.7-1.7C94.9,17.3,96,17.8,96.9,18.7z"/>
		<path fill="#FFFFFF" d="M110.2,24.5c0,2.5-0.5,4.4-1.6,5.5c-1.1,1.1-2.5,1.7-4.2,1.7c-1.7,0-3.1-0.6-4.2-1.7
			c-1.1-1.1-1.6-3-1.6-5.5c0-2.5,0.5-4.3,1.6-5.5c1.1-1.1,2.5-1.7,4.2-1.7c1.7,0,3.1,0.6,4.2,1.7C109.7,20.2,110.2,22,110.2,24.5z
			 M107.4,24.5c0-1.9-0.3-3.2-1-3.8c-0.5-0.5-1.2-0.8-2.1-0.8c-0.8,0-1.5,0.3-2,0.8c-0.6,0.6-1,1.9-1,3.8c0,1.9,0.3,3.2,1,3.8
			c0.6,0.6,1.2,0.8,2,0.8c0.8,0,1.5-0.3,2.1-0.8C107.1,27.7,107.4,26.4,107.4,24.5z"/>
		<path fill="#FFFFFF" d="M125.5,24.5c0,2.9-0.5,4.9-1.6,5.9c-0.8,0.8-2,1.2-3.4,1.2c-1.6,0-2.8-0.5-3.7-1.6v7.1H114V17.5h2.8V19
			c0.9-1.1,2.2-1.7,3.7-1.7c1.5,0,2.6,0.4,3.4,1.2C125,19.6,125.5,21.6,125.5,24.5z M122.7,24.5c0-1.5-0.2-2.6-0.5-3.3
			c-0.4-0.9-1.3-1.4-2.4-1.4c-1.2,0-2,0.5-2.4,1.4c-0.4,0.7-0.5,1.8-0.5,3.3c0,1.5,0.2,2.6,0.5,3.3c0.4,0.9,1.3,1.4,2.4,1.4
			c1.2,0,2-0.5,2.4-1.4C122.5,27.1,122.7,26,122.7,24.5z"/>
		<path fill="#FFFFFF" d="M140.6,31.5h-2.8v-1.4c-1,1.1-2.2,1.6-3.7,1.6c-1.4,0-2.6-0.4-3.4-1.3c-0.9-0.9-1.4-2.2-1.4-4v-9h2.8V26
			c0,1,0.3,1.8,0.8,2.4c0.5,0.5,1.2,0.7,2,0.7c0.8,0,1.5-0.3,2.1-0.8c0.5-0.5,0.8-1.3,0.8-2.3v-8.5h2.8V31.5z"/>
		<path fill="#FFFFFF" d="M156.2,25.3h-9.1c0,1.2,0.3,2.2,0.9,2.9c0.6,0.7,1.5,1.1,2.6,1.1c1.3,0,2.4-0.5,3.4-1.4l1.8,1.7
			c-0.8,0.8-1.5,1.3-2.2,1.6c-0.8,0.4-1.8,0.6-3,0.6c-4.2,0-6.3-2.4-6.3-7.2c0-2.2,0.5-4,1.6-5.3c1.1-1.3,2.5-1.9,4.3-1.9
			c1.8,0,3.3,0.6,4.4,1.9c1,1.2,1.5,2.8,1.5,4.9V25.3z M153.4,23.4c0-0.7-0.1-1.4-0.4-1.9c-0.5-1.2-1.4-1.8-2.8-1.8
			c-1.4,0-2.3,0.6-2.8,1.8c-0.2,0.5-0.3,1.1-0.4,1.9H153.4z"/>
		<path fill="#FFFFFF" d="M170.3,27.2c0,1.4-0.5,2.5-1.6,3.3c-1.1,0.8-2.5,1.2-4.2,1.2c-2.6,0-4.5-0.7-5.9-2l1.9-1.9
			c1,1,2.3,1.5,4,1.5c2,0,3.1-0.6,3.1-1.9c0-1-0.6-1.5-1.9-1.7l-2.2-0.2c-2.8-0.2-4.1-1.5-4.1-3.9c0-1.3,0.5-2.4,1.5-3.2
			c1-0.7,2.2-1.1,3.7-1.1c2.3,0,4,0.5,5.2,1.6l-1.8,1.8c-0.8-0.7-2-1-3.5-1c-1.7,0-2.5,0.6-2.5,1.8c0,1,0.6,1.5,1.9,1.6l2.2,0.2
			C168.9,23.5,170.3,24.8,170.3,27.2z"/>
		<path fill="#FFFFFF" d="M179.6,31.5h-1.7c-1.2,0-2.2-0.4-2.9-1.2c-0.6-0.7-0.9-1.6-0.9-2.7v-7.7h-1.6v-2.2h1.6v-4.3h2.8v4.3h2.7
			v2.2h-2.7v7.6c0,1.1,0.5,1.6,1.5,1.6h1.2V31.5z"/>
		<path fill="#FFFFFF" d="M193.5,31.5h-2.8v-1.3c-1,1-2.2,1.4-3.7,1.4c-1.7,0-2.9-0.4-3.7-1.3c-0.7-0.8-1.1-1.8-1.1-3
			c0-1.2,0.4-2.2,1.2-2.9c0.8-0.7,2-1.1,3.6-1.1h3.7v-1c0-1.8-1-2.6-3.1-2.6c-1.3,0-2.4,0.5-3.1,1.4l-1.9-1.7
			c0.6-0.8,1.4-1.3,2.2-1.6c0.7-0.3,1.7-0.4,2.9-0.4c3.9,0,5.8,1.6,5.8,4.8V31.5z M190.7,26.5v-1.1h-3.3c-1.7,0-2.5,0.7-2.5,2
			c0,1.3,0.9,2,2.6,2c1.2,0,2.1-0.3,2.6-0.8C190.5,28.1,190.7,27.5,190.7,26.5z"/>
	</g>
</g>
</svg>
