<?xml version="1.0" encoding="utf-8"?>
<!-- Generator: Adobe Illustrator 18.0.0, SVG Export Plug-In . SVG Version: 6.00 Build 0)  -->
<!DOCTYPE svg PUBLIC "-//W3C//DTD SVG 1.1//EN" "http://www.w3.org/Graphics/SVG/1.1/DTD/svg11.dtd">
<svg version="1.1" id="Layer_1" xmlns="http://www.w3.org/2000/svg" xmlns:xlink="http://www.w3.org/1999/xlink" x="0px" y="0px"
	 viewBox="0 0 15.3 12.4" enable-background="new 0 0 15.3 12.4" xml:space="preserve">
<path fill="#0000FF" d="M15.3,1.5c-0.6,0.2-1.2,0.4-1.8,0.5c0.6-0.4,1.1-1,1.4-1.7c-0.6,0.4-1.3,0.6-2,0.8c-0.6-0.6-1.4-1-2.3-1
	C8.9,0,7.4,1.4,7.4,3.1c0,0.2,0,0.5,0.1,0.7C4.9,3.7,2.6,2.5,1.1,0.6C0.8,1,0.6,1.6,0.6,2.2c0,1.1,0.6,2,1.4,2.6
	c-0.5,0-1-0.2-1.4-0.4v0c0,1.5,1.1,2.8,2.5,3.1C2.9,7.6,2.6,7.6,2.3,7.6c-0.2,0-0.4,0-0.6-0.1c0.4,1.2,1.6,2.2,2.9,2.2
	c-1.1,0.8-2.4,1.3-3.9,1.3c-0.3,0-0.5,0-0.7,0c1.4,0.9,3,1.4,4.8,1.4c5.8,0,8.9-4.8,8.9-8.9c0-0.1,0-0.3,0-0.4
	C14.3,2.7,14.9,2.1,15.3,1.5z"/>
</svg>
